# xmcd
#
# Track frame offsets:
#	150
#	23989
#	48204
#	70641
#	91761
#	111970
#	136035
#	160519
#	183089
#
# Disc length: 2753 seconds
#
# Revision: 0
# Processed by: cddbd v1.5.2PL0 Copyright (c) Steve Scherf et al.
# Submitted via: EasyCDDAExtractor 16.0.6.1
#
DISCID=600abf09
DTITLE=Funk Como Le Gusta - A Nave-Mãe Segue Viagem...
DYEAR=1900
DGENRE=
TTITLE0=Autocarro Veloz
TTITLE1=Wati Wati
TTITLE2=Você Verá
TTITLE3=Pappa Girl 
TTITLE4=Motown Song
TTITLE5=Som de Preto
TTITLE6=Yeah, Yeah, Yeah
TTITLE7=Tudo no Lugar
TTITLE8=Funk Nu A Munit
EXTD=
EXTT0=
EXTT1=
EXTT2=
EXTT3=
EXTT4=
EXTT5=
EXTT6=
EXTT7=
EXTT8=
PLAYORDER=
